<?xml version="1.0" encoding="UTF-8" standalone="no"?>
<!DOCTYPE svg PUBLIC "-//W3C//DTD SVG 1.1//EN" "http://www.w3.org/Graphics/SVG/1.1/DTD/svg11.dtd">
<svg t="1710936567674" class="icon" viewBox="0 0 1024 1024" version="1.1" xmlns="http://www.w3.org/2000/svg" p-id="4103" width="200" height="200">
	<path d="M907 162H117c-30.3 0-55 24.7-55 55v590c0 30.3 24.7 55 55 55h790c30.3 0 55-24.7 55-55V217c0-30.3-24.7-55-55-55z m25 645c0 13.8-11.2 25-25 25H117c-13.8 0-25-11.2-25-25V217c0-13.8 11.2-25 25-25h790c13.8 0 25 11.2 25 25v590z" fill="" p-id="4104"></path>
	<path d="M867 217H157c-22.1 0-40 17.9-40 40v510c0 22.1 17.9 40 40 40h710c22.1 0 40-17.9 40-40V257c0-22.1-17.9-40-40-40z m20 550c0 11-9 20-20 20H157c-11 0-20-9-20-20V257c0-11 9-20 20-20h710c11 0 20 9 20 20v510z" fill="" p-id="4105"></path>
	<path d="M312 757H192c-13.8 0-25-11.2-25-25v-80c0-2.8-2.2-5-5-5s-5 2.2-5 5v80c0 19.3 15.7 35 35 35h120c2.8 0 5-2.2 5-5s-2.2-5-5-5zM832 257H732c-2.8 0-5 2.2-5 5s2.2 5 5 5h100c13.8 0 25 11.2 25 25v90c0 2.8 2.2 5 5 5s5-2.2 5-5v-90c0-19.3-15.7-35-35-35zM821.9 564.9L657.4 729.4c-3.9 3.9-3.9 10.2 0 14.1 2 2 4.5 2.9 7.1 2.9s5.1-1 7.1-2.9L836.1 579c3.9-3.9 3.9-10.2 0-14.1-3.9-3.9-10.3-3.9-14.2 0zM747.1 547.9c-3.9-3.9-10.2-3.9-14.1 0l-93 93c-3.9 3.9-3.9 10.2 0 14.1 2 2 4.5 2.9 7.1 2.9s5.1-1 7.1-2.9l93-93c3.8-3.8 3.8-10.2-0.1-14.1z" fill="" p-id="4106"></path>
</svg>